<svg xmlns="http://www.w3.org/2000/svg" xmlns:xlink="http://www.w3.org/1999/xlink" width="50" zoomAndPan="magnify" viewBox="0 0 37.5 37.499999" height="50" preserveAspectRatio="xMidYMid meet" version="1.0"><defs><clipPath id="id1"><path d="M 0.894531 4.601562 L 36.894531 4.601562 L 36.894531 33.851562 L 0.894531 33.851562 Z M 0.894531 4.601562 " clip-rule="nonzero"/></clipPath></defs><g clip-path="url(#id1)"><path fill="rgb(23.919678%, 38.42926%, 37.249756%)" d="M 31.695312 4.601562 C 30.457031 4.601562 7.15625 4.601562 6.09375 4.601562 C 3.230469 4.601562 0.898438 6.921875 0.898438 9.773438 L 0.898438 28.679688 C 0.898438 31.53125 3.230469 33.851562 6.09375 33.851562 L 31.695312 33.851562 C 34.5625 33.851562 36.890625 31.53125 36.890625 28.679688 C 36.890625 27.800781 36.890625 10.65625 36.890625 9.773438 C 36.890625 6.921875 34.5625 4.601562 31.695312 4.601562 Z M 30.515625 5.648438 L 31.695312 5.648438 C 33.980469 5.648438 35.835938 7.5 35.835938 9.773438 L 35.835938 12.320312 L 32.574219 12.320312 L 32.574219 9.773438 C 32.574219 8.117188 31.785156 6.609375 30.515625 5.648438 Z M 1.953125 9.773438 C 1.953125 7.5 3.8125 5.648438 6.09375 5.648438 L 27.378906 5.648438 C 29.664062 5.648438 31.519531 7.5 31.519531 9.773438 L 31.519531 12.320312 L 1.953125 12.320312 Z M 1.953125 28.683594 L 1.953125 13.371094 L 31.519531 13.371094 L 31.519531 28.683594 C 31.519531 30.953125 29.664062 32.804688 27.378906 32.804688 L 6.09375 32.804688 C 3.8125 32.804688 1.953125 30.953125 1.953125 28.683594 Z M 35.835938 28.683594 C 35.835938 30.953125 33.980469 32.804688 31.695312 32.804688 L 30.515625 32.804688 C 31.769531 31.855469 32.574219 30.351562 32.574219 28.683594 L 32.574219 13.371094 L 35.835938 13.371094 Z M 35.835938 28.683594 " fill-opacity="1" fill-rule="nonzero"/></g><path fill="rgb(23.919678%, 38.42926%, 37.249756%)" d="M 7.140625 7.0625 C 6.078125 7.0625 5.210938 7.925781 5.210938 8.984375 C 5.210938 10.046875 6.078125 10.910156 7.140625 10.910156 C 8.207031 10.910156 9.074219 10.046875 9.074219 8.984375 C 9.074219 7.925781 8.207031 7.0625 7.140625 7.0625 Z M 7.140625 9.859375 C 6.660156 9.859375 6.265625 9.46875 6.265625 8.984375 C 6.265625 8.503906 6.660156 8.113281 7.140625 8.113281 C 7.625 8.113281 8.019531 8.503906 8.019531 8.984375 C 8.019531 9.46875 7.625 9.859375 7.140625 9.859375 Z M 7.140625 9.859375 " fill-opacity="1" fill-rule="nonzero"/><path fill="rgb(23.919678%, 38.42926%, 37.249756%)" d="M 12.101562 7.0625 C 11.035156 7.0625 10.171875 7.925781 10.171875 8.984375 C 10.171875 10.046875 11.035156 10.910156 12.101562 10.910156 C 13.167969 10.910156 14.035156 10.046875 14.035156 8.984375 C 14.035156 7.925781 13.167969 7.0625 12.101562 7.0625 Z M 12.101562 9.859375 C 11.617188 9.859375 11.226562 9.46875 11.226562 8.984375 C 11.226562 8.503906 11.617188 8.113281 12.101562 8.113281 C 12.585938 8.113281 12.980469 8.503906 12.980469 8.984375 C 12.980469 9.46875 12.585938 9.859375 12.101562 9.859375 Z M 12.101562 9.859375 " fill-opacity="1" fill-rule="nonzero"/><path fill="rgb(23.919678%, 38.42926%, 37.249756%)" d="M 17.0625 7.0625 C 15.996094 7.0625 15.128906 7.925781 15.128906 8.984375 C 15.128906 10.046875 15.996094 10.910156 17.0625 10.910156 C 18.125 10.910156 18.992188 10.046875 18.992188 8.984375 C 18.992188 7.925781 18.125 7.0625 17.0625 7.0625 Z M 17.0625 9.859375 C 16.578125 9.859375 16.183594 9.46875 16.183594 8.984375 C 16.183594 8.503906 16.578125 8.113281 17.0625 8.113281 C 17.542969 8.113281 17.9375 8.503906 17.9375 8.984375 C 17.9375 9.46875 17.542969 9.859375 17.0625 9.859375 Z M 17.0625 9.859375 " fill-opacity="1" fill-rule="nonzero"/><path fill="rgb(23.919678%, 38.42926%, 37.249756%)" d="M 16.738281 19.960938 C 15.003906 19.960938 13.597656 21.363281 13.597656 23.085938 C 13.597656 24.8125 15.003906 26.210938 16.738281 26.210938 C 18.46875 26.210938 19.875 24.8125 19.875 23.085938 C 19.875 21.363281 18.46875 19.960938 16.738281 19.960938 Z M 16.738281 25.164062 C 15.585938 25.164062 14.652344 24.230469 14.652344 23.085938 C 14.652344 21.941406 15.585938 21.011719 16.738281 21.011719 C 17.886719 21.011719 18.820312 21.941406 18.820312 23.085938 C 18.820312 24.230469 17.886719 25.164062 16.738281 25.164062 Z M 16.738281 25.164062 " fill-opacity="1" fill-rule="nonzero"/><path fill="rgb(23.919678%, 38.42926%, 37.249756%)" d="M 23.460938 24.335938 L 22.5 23.785156 C 22.554688 23.335938 22.558594 22.871094 22.5 22.390625 L 23.460938 21.835938 C 24.21875 21.402344 24.480469 20.433594 24.042969 19.679688 L 23.351562 18.492188 C 22.914062 17.738281 21.945312 17.480469 21.1875 17.914062 L 20.226562 18.46875 C 19.851562 18.183594 19.445312 17.949219 19.011719 17.769531 L 19.011719 16.664062 C 19.011719 15.792969 18.300781 15.085938 17.425781 15.085938 L 16.046875 15.085938 C 15.171875 15.085938 14.460938 15.792969 14.460938 16.664062 L 14.460938 17.769531 C 14.03125 17.949219 13.625 18.183594 13.246094 18.46875 L 12.285156 17.914062 C 11.53125 17.480469 10.558594 17.738281 10.121094 18.492188 L 9.433594 19.679688 C 8.996094 20.433594 9.253906 21.402344 10.011719 21.835938 L 10.972656 22.390625 C 10.917969 22.835938 10.914062 23.304688 10.972656 23.785156 L 10.011719 24.335938 C 9.253906 24.773438 8.996094 25.738281 9.433594 26.492188 L 10.121094 27.679688 C 10.558594 28.4375 11.527344 28.695312 12.285156 28.257812 L 13.246094 27.707031 C 13.625 27.988281 14.03125 28.222656 14.460938 28.40625 L 14.460938 29.507812 C 14.460938 30.378906 15.171875 31.085938 16.046875 31.085938 L 17.425781 31.085938 C 18.300781 31.085938 19.011719 30.378906 19.011719 29.507812 L 19.011719 28.40625 C 19.445312 28.222656 19.851562 27.988281 20.226562 27.707031 L 21.1875 28.257812 C 21.945312 28.695312 22.914062 28.433594 23.351562 27.683594 L 24.042969 26.492188 C 24.480469 25.738281 24.21875 24.773438 23.460938 24.335938 Z M 23.128906 25.96875 L 22.441406 27.15625 C 22.292969 27.410156 21.96875 27.496094 21.714844 27.351562 L 20.441406 26.617188 C 20.246094 26.507812 20.003906 26.53125 19.832031 26.675781 C 19.382812 27.0625 18.871094 27.355469 18.308594 27.550781 C 18.097656 27.625 17.957031 27.824219 17.957031 28.046875 L 17.957031 29.507812 C 17.957031 29.800781 17.71875 30.039062 17.425781 30.039062 L 16.046875 30.039062 C 15.753906 30.039062 15.515625 29.800781 15.515625 29.507812 L 15.515625 28.046875 C 15.515625 27.824219 15.375 27.625 15.164062 27.550781 C 14.605469 27.355469 14.089844 27.0625 13.640625 26.675781 C 13.46875 26.53125 13.226562 26.507812 13.03125 26.617188 L 11.757812 27.351562 C 11.503906 27.496094 11.179688 27.410156 11.035156 27.15625 L 10.34375 25.96875 C 10.199219 25.714844 10.285156 25.394531 10.539062 25.246094 L 11.8125 24.515625 C 12.003906 24.402344 12.109375 24.183594 12.066406 23.964844 C 11.957031 23.386719 11.957031 22.789062 12.066406 22.210938 C 12.109375 21.992188 12.003906 21.769531 11.8125 21.660156 L 10.539062 20.929688 C 10.285156 20.78125 10.199219 20.457031 10.34375 20.207031 L 11.035156 19.019531 C 11.179688 18.765625 11.507812 18.679688 11.757812 18.824219 L 13.03125 19.554688 C 13.226562 19.667969 13.46875 19.644531 13.640625 19.5 C 14.089844 19.113281 14.605469 18.816406 15.164062 18.621094 C 15.375 18.546875 15.515625 18.351562 15.515625 18.128906 L 15.515625 16.664062 C 15.515625 16.375 15.753906 16.136719 16.046875 16.136719 L 17.425781 16.136719 C 17.71875 16.136719 17.957031 16.375 17.957031 16.664062 L 17.957031 18.128906 C 17.957031 18.351562 18.097656 18.546875 18.308594 18.621094 C 18.871094 18.816406 19.382812 19.113281 19.832031 19.5 C 20.003906 19.644531 20.246094 19.667969 20.441406 19.554688 L 21.714844 18.824219 C 21.96875 18.679688 22.292969 18.765625 22.441406 19.019531 L 23.128906 20.207031 C 23.273438 20.457031 23.1875 20.78125 22.933594 20.929688 L 21.660156 21.660156 C 21.46875 21.769531 21.367188 21.992188 21.40625 22.210938 C 21.515625 22.789062 21.515625 23.386719 21.40625 23.964844 C 21.367188 24.183594 21.46875 24.402344 21.660156 24.515625 L 22.933594 25.246094 C 23.1875 25.394531 23.273438 25.714844 23.128906 25.96875 Z M 23.128906 25.96875 " fill-opacity="1" fill-rule="nonzero"/></svg>