<svg xmlns="http://www.w3.org/2000/svg" xmlns:xlink="http://www.w3.org/1999/xlink" width="50" zoomAndPan="magnify" viewBox="0 0 37.5 37.499999" height="50" preserveAspectRatio="xMidYMid meet" version="1.0"><defs><clipPath id="id1"><path d="M 0 0 L 37.007812 0 L 37.007812 37.007812 L 0 37.007812 Z M 0 0 " clip-rule="nonzero"/></clipPath><clipPath id="id2"><path d="M 1.199219 1.199219 L 36.449219 1.199219 L 36.449219 36.449219 L 1.199219 36.449219 Z M 1.199219 1.199219 " clip-rule="nonzero"/></clipPath></defs><g clip-path="url(#id1)"><path fill="rgb(0%, 0%, 0%)" d="M 206.25 0 C 92.5 0 0 92.5 0 206.25 C 0 320 92.5 412.5 206.25 412.5 C 320 412.5 412.5 320 412.5 206.25 C 412.5 92.5 319.703125 0 206.25 0 Z M 206.25 400.226562 C 99.082031 400.226562 11.972656 313.117188 11.972656 206.25 C 11.972656 99.082031 99.082031 11.972656 206.25 11.972656 C 313.417969 11.972656 400.527344 99.082031 400.527344 206.25 C 400.226562 313.117188 313.117188 400.226562 206.25 400.226562 Z M 206.25 400.226562 " fill-opacity="1" fill-rule="nonzero"/></g><g clip-path="url(#id2)"><path fill="rgb(100%, 100%, 100%)" d="M 18.824219 1.199219 C 9.105469 1.199219 1.199219 9.105469 1.199219 18.824219 C 1.199219 28.546875 9.105469 36.449219 18.824219 36.449219 C 28.546875 36.449219 36.449219 28.546875 36.449219 18.824219 C 36.449219 9.105469 28.519531 1.199219 18.824219 1.199219 Z M 18.824219 35.402344 C 9.667969 35.402344 2.222656 27.957031 2.222656 18.824219 C 2.222656 9.667969 9.667969 2.222656 18.824219 2.222656 C 27.984375 2.222656 35.425781 9.667969 35.425781 18.824219 C 35.402344 27.957031 27.957031 35.402344 18.824219 35.402344 Z M 18.824219 35.402344 " fill-opacity="1" fill-rule="nonzero"/></g><path fill="rgb(100%, 100%, 100%)" d="M 29.746094 11.535156 C 29.695312 11.484375 29.644531 11.433594 29.59375 11.382812 C 29.59375 11.382812 29.59375 11.355469 29.570312 11.355469 C 29.492188 11.328125 29.441406 11.304688 29.363281 11.304688 L 8.285156 11.304688 C 8.210938 11.304688 8.132812 11.328125 8.082031 11.355469 C 8.082031 11.355469 8.054688 11.382812 8.054688 11.382812 C 7.980469 11.40625 7.925781 11.457031 7.902344 11.535156 C 7.875 11.558594 7.875 11.558594 7.875 11.585938 C 7.824219 11.664062 7.800781 11.738281 7.800781 11.839844 L 7.800781 23.300781 C 7.800781 24.964844 9.128906 26.292969 10.792969 26.292969 L 26.910156 26.292969 C 28.570312 26.292969 29.902344 24.9375 29.902344 23.300781 L 29.902344 11.839844 C 29.902344 11.738281 29.875 11.664062 29.824219 11.585938 C 29.773438 11.585938 29.773438 11.558594 29.746094 11.535156 Z M 27.90625 12.351562 L 18.824219 19.746094 L 9.71875 12.351562 C 9.71875 12.351562 27.90625 12.351562 27.90625 12.351562 Z M 28.828125 23.300781 C 28.828125 24.375 27.933594 25.269531 26.855469 25.269531 L 10.742188 25.269531 C 9.667969 25.269531 8.773438 24.375 8.773438 23.300781 L 8.773438 12.914062 L 18.46875 20.792969 C 18.644531 20.949219 18.925781 20.949219 19.105469 20.792969 L 28.828125 12.914062 C 28.828125 12.914062 28.828125 23.300781 28.828125 23.300781 Z M 28.828125 23.300781 " fill-opacity="1" fill-rule="nonzero"/></svg>