<svg xmlns="http://www.w3.org/2000/svg" xmlns:xlink="http://www.w3.org/1999/xlink" width="50" zoomAndPan="magnify" viewBox="0 0 37.5 37.499999" height="50" preserveAspectRatio="xMidYMid meet" version="1.0"><defs><clipPath id="id1"><path d="M 0 4.347656 L 36.75 4.347656 L 36.75 33.597656 L 0 33.597656 Z M 0 4.347656 " clip-rule="nonzero"/></clipPath></defs><path fill="rgb(23.919678%, 38.42926%, 37.249756%)" d="M 5.714844 27.875 C 5.714844 28.050781 5.652344 28.199219 5.527344 28.324219 C 5.40625 28.449219 5.253906 28.511719 5.082031 28.511719 C 4.90625 28.511719 4.757812 28.449219 4.632812 28.324219 C 4.507812 28.199219 4.449219 28.050781 4.449219 27.875 C 4.449219 27.699219 4.507812 27.550781 4.632812 27.425781 C 4.757812 27.300781 4.90625 27.238281 5.082031 27.238281 C 5.253906 27.238281 5.40625 27.300781 5.527344 27.425781 C 5.652344 27.550781 5.714844 27.699219 5.714844 27.875 Z M 5.714844 27.875 " fill-opacity="1" fill-rule="nonzero"/><g clip-path="url(#id1)"><path fill="rgb(23.919678%, 38.42926%, 37.249756%)" d="M 1.28125 25.332031 L 35.46875 25.332031 L 35.46875 26.605469 C 35.46875 26.953125 35.183594 27.238281 34.835938 27.238281 C 34.835938 27.238281 6.980469 27.238281 6.980469 27.238281 C 6.628906 27.238281 6.347656 27.523438 6.347656 27.875 C 6.347656 28.226562 6.628906 28.511719 6.980469 28.511719 L 13.890625 28.511719 C 13.773438 29.5 13.40625 31.382812 12.238281 32.503906 C 12.050781 32.683594 11.992188 32.957031 12.089844 33.199219 C 12.1875 33.441406 12.417969 33.597656 12.675781 33.597656 L 24.074219 33.597656 C 24.332031 33.597656 24.5625 33.441406 24.660156 33.199219 C 24.757812 32.957031 24.699219 32.683594 24.511719 32.503906 C 23.34375 31.382812 22.976562 29.5 22.859375 28.511719 L 34.835938 28.511719 C 35.882812 28.511719 36.734375 27.65625 36.734375 26.605469 L 36.734375 6.257812 C 36.734375 5.203125 35.882812 4.347656 34.835938 4.347656 L 33.570312 4.347656 C 33.21875 4.347656 32.9375 4.632812 32.9375 4.984375 C 32.9375 5.335938 33.21875 5.621094 33.570312 5.621094 L 34.835938 5.621094 C 35.183594 5.621094 35.46875 5.90625 35.46875 6.257812 L 35.46875 24.058594 L 1.28125 24.058594 L 1.28125 6.257812 C 1.28125 5.90625 1.566406 5.621094 1.914062 5.621094 C 1.914062 5.621094 31.667969 5.621094 31.667969 5.621094 C 32.019531 5.621094 32.300781 5.335938 32.300781 4.984375 C 32.300781 4.632812 32.019531 4.347656 31.667969 4.347656 C 31.667969 4.347656 6.789062 4.347656 1.914062 4.347656 C 0.867188 4.347656 0.015625 5.203125 0.015625 6.257812 L 0.015625 26.605469 C 0.015625 27.65625 0.867188 28.511719 1.914062 28.511719 L 3.179688 28.511719 C 3.53125 28.511719 3.8125 28.226562 3.8125 27.875 C 3.8125 27.523438 3.53125 27.238281 3.179688 27.238281 L 1.914062 27.238281 C 1.566406 27.238281 1.28125 26.953125 1.28125 26.605469 Z M 21.59375 28.511719 L 15.15625 28.511719 C 15.050781 29.375 14.761719 30.988281 13.96875 32.328125 C 13.96875 32.328125 22.78125 32.328125 22.78125 32.328125 C 21.988281 30.988281 21.699219 29.375 21.59375 28.511719 Z M 21.59375 28.511719 " fill-opacity="1" fill-rule="evenodd"/></g><path fill="rgb(23.919678%, 38.42926%, 37.249756%)" d="M 17.742188 14.839844 L 17.742188 13.570312 C 17.742188 13.148438 17.574219 12.742188 17.277344 12.445312 C 16.980469 12.144531 16.578125 11.980469 16.160156 11.980469 C 13.710938 11.980469 7.210938 11.980469 4.765625 11.980469 C 4.34375 11.980469 3.941406 12.144531 3.644531 12.445312 C 3.347656 12.742188 3.179688 13.148438 3.179688 13.570312 C 3.179688 15.394531 3.179688 19.371094 3.179688 21.199219 C 3.179688 21.621094 3.347656 22.023438 3.644531 22.324219 C 3.941406 22.621094 4.34375 22.789062 4.765625 22.789062 C 7.210938 22.789062 13.710938 22.789062 16.160156 22.789062 C 16.578125 22.789062 16.980469 22.621094 17.277344 22.324219 C 17.574219 22.023438 17.742188 21.621094 17.742188 21.199219 C 17.742188 19.726562 17.742188 16.746094 17.742188 16.746094 C 17.742188 16.398438 17.457031 16.113281 17.109375 16.113281 C 16.757812 16.113281 16.476562 16.398438 16.476562 16.746094 L 16.476562 21.199219 C 16.476562 21.285156 16.441406 21.363281 16.382812 21.425781 C 16.324219 21.484375 16.242188 21.515625 16.160156 21.515625 L 4.765625 21.515625 C 4.679688 21.515625 4.597656 21.484375 4.539062 21.425781 C 4.480469 21.363281 4.449219 21.285156 4.449219 21.199219 L 4.449219 13.570312 C 4.449219 13.484375 4.480469 13.402344 4.539062 13.34375 C 4.597656 13.285156 4.679688 13.25 4.765625 13.25 L 16.160156 13.25 C 16.242188 13.25 16.324219 13.285156 16.382812 13.34375 C 16.441406 13.402344 16.476562 13.484375 16.476562 13.570312 L 16.476562 14.839844 C 16.476562 15.191406 16.757812 15.476562 17.109375 15.476562 C 17.457031 15.476562 17.742188 15.191406 17.742188 14.839844 Z M 17.742188 14.839844 " fill-opacity="1" fill-rule="evenodd"/><path fill="rgb(23.919678%, 38.42926%, 37.249756%)" d="M 13.59375 17.953125 C 13.808594 17.84375 13.945312 17.625 13.945312 17.382812 C 13.945312 17.144531 13.808594 16.921875 13.59375 16.816406 L 9.160156 14.589844 C 8.964844 14.492188 8.734375 14.5 8.546875 14.617188 C 8.359375 14.734375 8.246094 14.9375 8.246094 15.160156 L 8.246094 19.609375 C 8.246094 19.828125 8.359375 20.035156 8.546875 20.152344 C 8.734375 20.265625 8.964844 20.277344 9.160156 20.179688 Z M 11.894531 17.382812 L 9.511719 18.582031 C 9.511719 18.582031 9.511719 16.1875 9.511719 16.1875 Z M 11.894531 17.382812 " fill-opacity="1" fill-rule="evenodd"/><path fill="rgb(23.919678%, 38.42926%, 37.249756%)" d="M 19.640625 13.25 L 32.9375 13.25 C 33.285156 13.25 33.570312 12.964844 33.570312 12.613281 C 33.570312 12.265625 33.285156 11.980469 32.9375 11.980469 L 19.640625 11.980469 C 19.292969 11.980469 19.007812 12.265625 19.007812 12.613281 C 19.007812 12.964844 19.292969 13.25 19.640625 13.25 Z M 19.640625 13.25 " fill-opacity="1" fill-rule="evenodd"/><path fill="rgb(23.919678%, 38.42926%, 37.249756%)" d="M 19.640625 15.792969 L 31.035156 15.792969 C 31.386719 15.792969 31.667969 15.507812 31.667969 15.160156 C 31.667969 14.808594 31.386719 14.523438 31.035156 14.523438 L 19.640625 14.523438 C 19.292969 14.523438 19.007812 14.808594 19.007812 15.160156 C 19.007812 15.507812 19.292969 15.792969 19.640625 15.792969 Z M 19.640625 15.792969 " fill-opacity="1" fill-rule="evenodd"/><path fill="rgb(23.919678%, 38.42926%, 37.249756%)" d="M 19.640625 18.335938 L 31.667969 18.335938 C 32.019531 18.335938 32.300781 18.050781 32.300781 17.703125 C 32.300781 17.351562 32.019531 17.066406 31.667969 17.066406 L 19.640625 17.066406 C 19.292969 17.066406 19.007812 17.351562 19.007812 17.703125 C 19.007812 18.050781 19.292969 18.335938 19.640625 18.335938 Z M 19.640625 18.335938 " fill-opacity="1" fill-rule="evenodd"/><path fill="rgb(23.919678%, 38.42926%, 37.249756%)" d="M 19.640625 20.882812 L 26.921875 20.882812 C 27.269531 20.882812 27.554688 20.597656 27.554688 20.246094 C 27.554688 19.894531 27.269531 19.609375 26.921875 19.609375 L 19.640625 19.609375 C 19.292969 19.609375 19.007812 19.894531 19.007812 20.246094 C 19.007812 20.597656 19.292969 20.882812 19.640625 20.882812 Z M 19.640625 20.882812 " fill-opacity="1" fill-rule="evenodd"/><path fill="rgb(23.919678%, 38.42926%, 37.249756%)" d="M 30.71875 8.164062 L 31.984375 8.164062 C 32.335938 8.164062 32.617188 8.449219 32.617188 8.800781 C 32.617188 9.152344 32.335938 9.433594 31.984375 9.433594 C 31.984375 9.433594 4.765625 9.433594 4.765625 9.433594 C 4.414062 9.433594 4.132812 9.152344 4.132812 8.800781 C 4.132812 8.449219 4.414062 8.164062 4.765625 8.164062 C 4.765625 8.164062 28.820312 8.164062 28.820312 8.164062 C 29.171875 8.164062 29.453125 7.878906 29.453125 7.527344 C 29.453125 7.175781 29.171875 6.890625 28.820312 6.890625 L 4.765625 6.890625 C 3.714844 6.890625 2.863281 7.746094 2.863281 8.800781 C 2.863281 9.851562 3.714844 10.707031 4.765625 10.707031 C 4.765625 10.707031 31.984375 10.707031 31.984375 10.707031 C 33.035156 10.707031 33.886719 9.851562 33.886719 8.800781 C 33.886719 7.746094 33.035156 6.890625 31.984375 6.890625 C 31.984375 6.890625 30.71875 6.890625 30.71875 6.890625 C 30.371094 6.890625 30.085938 7.175781 30.085938 7.527344 C 30.085938 7.878906 30.371094 8.164062 30.71875 8.164062 Z M 30.71875 8.164062 " fill-opacity="1" fill-rule="evenodd"/></svg>