<svg xmlns="http://www.w3.org/2000/svg" xmlns:xlink="http://www.w3.org/1999/xlink" width="50" zoomAndPan="magnify" viewBox="0 0 37.5 37.499999" height="50" preserveAspectRatio="xMidYMid meet" version="1.0"><defs><clipPath id="id1"><path d="M 0.976562 1 L 37.007812 1 L 37.007812 37.007812 L 0.976562 37.007812 Z M 0.976562 1 " clip-rule="nonzero"/></clipPath></defs><g clip-path="url(#id1)"><path fill="rgb(100%, 100%, 100%)" d="M 23.179688 37.589844 C 23.003906 37.589844 22.835938 37.53125 22.699219 37.421875 C 22.519531 37.277344 22.414062 37.058594 22.414062 36.824219 L 22.414062 31.128906 C 22.414062 29.75 22.238281 28.773438 21.855469 28.058594 C 21.746094 27.847656 21.738281 27.597656 21.835938 27.382812 C 21.933594 27.167969 22.128906 27.007812 22.359375 26.957031 C 26.898438 25.910156 30.070312 22.585938 30.070312 18.878906 C 30.070312 17.039062 29.3125 15.289062 27.886719 13.808594 C 27.667969 13.578125 27.609375 13.242188 27.742188 12.953125 C 28.3125 11.722656 28.191406 10.050781 27.515625 9.050781 C 26.625 9.398438 25.464844 10.128906 24.710938 11.023438 C 24.503906 11.269531 24.167969 11.359375 23.863281 11.25 C 20.992188 10.195312 17.710938 10.195312 14.839844 11.25 C 14.539062 11.359375 14.199219 11.269531 13.992188 11.023438 C 13.238281 10.128906 12.078125 9.398438 11.183594 9.050781 C 10.507812 10.054688 10.386719 11.726562 10.957031 12.953125 C 11.089844 13.242188 11.035156 13.578125 10.8125 13.808594 C 9.386719 15.289062 8.632812 17.042969 8.632812 18.878906 C 8.632812 22.410156 11.484375 25.59375 15.730469 26.796875 C 16.0625 26.890625 16.289062 27.191406 16.289062 27.53125 L 16.289062 28.066406 C 16.289062 29.027344 15.902344 29.566406 15.578125 29.851562 C 14.886719 30.460938 13.992188 30.367188 13.894531 30.359375 C 13.890625 30.359375 13.886719 30.359375 13.878906 30.359375 C 12.617188 30.359375 11.667969 29.65625 10.753906 28.976562 C 10.292969 28.632812 9.824219 28.285156 9.28125 28 C 9.398438 28.15625 9.515625 28.320312 9.632812 28.484375 C 10.78125 30.082031 12.082031 31.894531 13.992188 31.894531 L 15.523438 31.894531 C 15.945312 31.894531 16.289062 32.238281 16.289062 32.660156 L 16.289062 36.824219 C 16.289062 37.058594 16.183594 37.277344 16.003906 37.421875 C 15.820312 37.566406 15.585938 37.621094 15.359375 37.570312 C 7.023438 35.722656 0.976562 28.183594 0.976562 19.644531 C 0.976562 9.511719 9.21875 1.269531 19.351562 1.269531 C 29.480469 1.269531 37.726562 9.511719 37.726562 19.644531 C 37.726562 28.183594 31.675781 35.722656 23.34375 37.570312 C 23.289062 37.585938 23.234375 37.589844 23.179688 37.589844 Z M 23.574219 28.21875 C 23.824219 29.007812 23.945312 29.957031 23.945312 31.128906 L 23.945312 35.839844 C 31.097656 33.8125 36.195312 27.148438 36.195312 19.644531 C 36.195312 10.355469 28.636719 2.800781 19.351562 2.800781 C 10.0625 2.800781 2.507812 10.355469 2.507812 19.644531 C 2.507812 27.148438 7.605469 33.8125 14.757812 35.839844 L 14.757812 33.425781 L 13.992188 33.425781 C 11.296875 33.425781 9.683594 31.183594 8.386719 29.378906 C 7.65625 28.355469 6.894531 27.300781 6.335938 27.300781 C 5.910156 27.300781 5.570312 26.957031 5.570312 26.535156 C 5.570312 26.113281 5.910156 25.769531 6.335938 25.769531 C 9 25.769531 10.476562 26.863281 11.664062 27.746094 C 12.484375 28.351562 13.128906 28.832031 13.992188 28.832031 C 14.078125 28.835938 14.394531 28.859375 14.570312 28.699219 C 14.714844 28.566406 14.753906 28.304688 14.757812 28.097656 C 10.152344 26.589844 7.101562 22.941406 7.101562 18.878906 C 7.101562 16.792969 7.882812 14.808594 9.371094 13.113281 C 8.714844 11.210938 9.121094 8.886719 10.386719 7.617188 C 10.578125 7.425781 10.855469 7.347656 11.121094 7.421875 C 12.144531 7.691406 13.664062 8.484375 14.800781 9.640625 C 17.714844 8.691406 20.980469 8.691406 23.894531 9.640625 C 25.03125 8.484375 26.550781 7.691406 27.574219 7.421875 C 27.835938 7.347656 28.117188 7.425781 28.308594 7.617188 C 29.574219 8.886719 29.980469 11.210938 29.324219 13.113281 C 30.816406 14.808594 31.601562 16.792969 31.601562 18.878906 C 31.601562 23.054688 28.34375 26.796875 23.574219 28.21875 Z M 23.574219 28.21875 " fill-opacity="1" fill-rule="nonzero"/></g></svg>