<svg xmlns="http://www.w3.org/2000/svg" xmlns:xlink="http://www.w3.org/1999/xlink" width="50" zoomAndPan="magnify" viewBox="0 0 37.5 37.499999" height="50" preserveAspectRatio="xMidYMid meet" version="1.0"><defs><clipPath id="id1"><path d="M 0 0.976562 L 36.75 0.976562 L 36.75 37.007812 L 0 37.007812 Z M 0 0.976562 " clip-rule="nonzero"/></clipPath></defs><g clip-path="url(#id1)"><path fill="rgb(100%, 100%, 100%)" d="M 18.375 0.976562 C 8.234375 0.976562 0 9.210938 0 19.351562 C 0 29.488281 8.234375 37.726562 18.375 37.726562 C 28.515625 37.726562 36.75 29.488281 36.75 19.351562 C 36.75 9.210938 28.515625 0.976562 18.375 0.976562 Z M 18.375 2.574219 C 27.648438 2.574219 35.152344 10.074219 35.152344 19.351562 C 35.152344 28.625 27.648438 36.128906 18.375 36.128906 C 9.101562 36.128906 1.597656 28.625 1.597656 19.351562 C 1.597656 10.074219 9.101562 2.574219 18.375 2.574219 Z M 11.183594 8.964844 C 9.871094 8.964844 8.789062 10.046875 8.789062 11.359375 C 8.789062 12.675781 9.871094 13.757812 11.183594 13.757812 C 12.5 13.757812 13.582031 12.675781 13.582031 11.359375 C 13.582031 10.046875 12.5 8.964844 11.183594 8.964844 Z M 11.183594 10.5625 C 11.636719 10.5625 11.984375 10.910156 11.984375 11.359375 C 11.984375 11.8125 11.636719 12.160156 11.183594 12.160156 C 10.734375 12.160156 10.386719 11.8125 10.386719 11.359375 C 10.386719 10.910156 10.734375 10.5625 11.183594 10.5625 Z M 9.585938 14.554688 C 9.367188 14.554688 9.179688 14.632812 9.023438 14.789062 C 8.867188 14.945312 8.789062 15.136719 8.789062 15.355469 L 8.789062 27.339844 C 8.789062 27.558594 8.867188 27.75 9.023438 27.902344 C 9.179688 28.058594 9.367188 28.136719 9.585938 28.136719 L 12.78125 28.136719 C 13.003906 28.136719 13.191406 28.058594 13.347656 27.902344 C 13.503906 27.746094 13.582031 27.558594 13.582031 27.339844 L 13.582031 15.355469 C 13.582031 15.136719 13.503906 14.945312 13.347656 14.789062 C 13.191406 14.632812 13.003906 14.554688 12.78125 14.554688 Z M 15.976562 14.554688 C 15.757812 14.554688 15.570312 14.632812 15.414062 14.789062 C 15.257812 14.945312 15.179688 15.136719 15.179688 15.355469 L 15.179688 27.339844 C 15.179688 27.558594 15.257812 27.75 15.414062 27.902344 C 15.570312 28.058594 15.757812 28.136719 15.976562 28.136719 L 19.175781 28.136719 C 19.394531 28.136719 19.582031 28.058594 19.738281 27.902344 C 19.894531 27.746094 19.972656 27.558594 19.972656 27.339844 L 19.972656 21.347656 C 19.972656 20.246094 20.867188 19.351562 21.96875 19.351562 C 23.070312 19.351562 23.96875 20.246094 23.96875 21.347656 L 23.96875 27.339844 C 23.96875 27.558594 24.046875 27.75 24.203125 27.902344 C 24.359375 28.058594 24.546875 28.136719 24.765625 28.136719 L 27.960938 28.136719 C 28.183594 28.136719 28.371094 28.058594 28.527344 27.902344 C 28.683594 27.746094 28.761719 27.558594 28.761719 27.339844 L 28.761719 20.546875 C 28.761719 17.25 26.070312 14.554688 22.769531 14.554688 C 21.742188 14.554688 20.820312 14.890625 19.972656 15.347656 C 19.96875 15.128906 19.890625 14.941406 19.734375 14.789062 C 19.582031 14.632812 19.394531 14.554688 19.175781 14.554688 Z M 10.386719 16.15625 L 11.984375 16.15625 L 11.984375 26.539062 L 10.386719 26.539062 Z M 16.777344 16.15625 L 18.375 16.15625 L 18.375 16.804688 C 18.375 17.160156 18.535156 17.402344 18.859375 17.542969 C 19.183594 17.679688 19.472656 17.625 19.726562 17.382812 C 20.519531 16.621094 21.582031 16.15625 22.769531 16.15625 C 25.207031 16.15625 27.164062 18.113281 27.164062 20.546875 L 27.164062 26.539062 L 25.566406 26.539062 L 25.566406 21.347656 C 25.566406 19.375 23.945312 17.753906 21.96875 17.753906 C 19.996094 17.753906 18.375 19.375 18.375 21.347656 L 18.375 26.539062 L 16.777344 26.539062 Z M 16.777344 16.15625 " fill-opacity="1" fill-rule="nonzero"/></g></svg>