<svg xmlns="http://www.w3.org/2000/svg" xmlns:xlink="http://www.w3.org/1999/xlink" width="50" zoomAndPan="magnify" viewBox="0 0 37.5 37.499999" height="50" preserveAspectRatio="xMidYMid meet" version="1.0"><defs><clipPath id="id1"><path d="M 1.652344 3.105469 L 36 3.105469 L 36 30 L 1.652344 30 Z M 1.652344 3.105469 " clip-rule="nonzero"/></clipPath><clipPath id="id2"><path d="M 1.652344 22 L 36 22 L 36 24 L 1.652344 24 Z M 1.652344 22 " clip-rule="nonzero"/></clipPath><clipPath id="id3"><path d="M 12 28 L 26 28 L 26 34.605469 L 12 34.605469 Z M 12 28 " clip-rule="nonzero"/></clipPath><clipPath id="id4"><path d="M 11 33 L 27 33 L 27 34.605469 L 11 34.605469 Z M 11 33 " clip-rule="nonzero"/></clipPath></defs><g clip-path="url(#id1)"><path fill="rgb(23.919678%, 38.42926%, 37.249756%)" d="M 33.558594 29.886719 L 4.253906 29.886719 C 2.933594 29.886719 1.863281 28.816406 1.863281 27.5 L 1.863281 5.492188 C 1.863281 4.175781 2.933594 3.109375 4.253906 3.105469 L 33.558594 3.105469 C 34.878906 3.109375 35.949219 4.175781 35.949219 5.492188 L 35.949219 27.5 C 35.949219 28.816406 34.878906 29.886719 33.558594 29.886719 Z M 4.253906 4.078125 C 3.472656 4.078125 2.835938 4.710938 2.835938 5.492188 L 2.835938 27.5 C 2.835938 28.28125 3.472656 28.914062 4.253906 28.914062 L 33.558594 28.914062 C 34.339844 28.914062 34.972656 28.28125 34.976562 27.5 L 34.976562 5.492188 C 34.972656 4.710938 34.339844 4.078125 33.558594 4.078125 Z M 4.253906 4.078125 " fill-opacity="1" fill-rule="nonzero"/></g><g clip-path="url(#id2)"><path fill="rgb(23.919678%, 38.42926%, 37.249756%)" d="M 35.460938 23.59375 L 2.347656 23.59375 C 1.699219 23.59375 1.699219 22.621094 2.347656 22.621094 L 35.460938 22.621094 C 36.109375 22.621094 36.109375 23.59375 35.460938 23.59375 Z M 35.460938 23.59375 " fill-opacity="1" fill-rule="nonzero"/></g><g clip-path="url(#id3)"><path fill="rgb(23.919678%, 38.42926%, 37.249756%)" d="M 24.527344 34.605469 L 13.285156 34.605469 C 12.96875 34.605469 12.734375 34.3125 12.8125 34.007812 L 13.960938 29.285156 C 14.011719 29.070312 14.207031 28.914062 14.433594 28.914062 L 23.378906 28.914062 C 23.601562 28.914062 23.796875 29.070312 23.851562 29.285156 L 25 34.007812 C 25.074219 34.3125 24.84375 34.605469 24.527344 34.605469 Z M 13.902344 33.636719 L 23.90625 33.636719 L 22.996094 29.886719 L 14.816406 29.886719 Z M 13.902344 33.636719 " fill-opacity="1" fill-rule="nonzero"/></g><g clip-path="url(#id4)"><path fill="rgb(23.919678%, 38.42926%, 37.249756%)" d="M 26.300781 34.605469 L 11.511719 34.605469 C 10.863281 34.605469 10.863281 33.636719 11.511719 33.636719 L 26.300781 33.636719 C 26.949219 33.636719 26.949219 34.605469 26.300781 34.605469 Z M 26.300781 34.605469 " fill-opacity="1" fill-rule="nonzero"/></g><path fill="rgb(23.919678%, 38.42926%, 37.249756%)" d="M 18.90625 27.722656 C 18.332031 27.722656 17.8125 27.378906 17.59375 26.847656 C 17.375 26.320312 17.496094 25.710938 17.902344 25.304688 C 18.308594 24.898438 18.917969 24.777344 19.449219 24.996094 C 19.980469 25.21875 20.328125 25.734375 20.324219 26.308594 C 20.324219 27.089844 19.6875 27.722656 18.90625 27.722656 Z M 18.90625 25.863281 C 18.507812 25.863281 18.308594 26.339844 18.589844 26.621094 C 18.871094 26.902344 19.351562 26.703125 19.351562 26.308594 C 19.351562 26.0625 19.152344 25.863281 18.90625 25.863281 Z M 18.90625 25.863281 " fill-opacity="1" fill-rule="nonzero"/><path fill="rgb(23.919678%, 38.42926%, 37.249756%)" d="M 19.046875 10.578125 C 17.945312 10.578125 16.953125 9.914062 16.53125 8.898438 C 16.113281 7.886719 16.34375 6.714844 17.125 5.9375 C 17.902344 5.164062 19.074219 4.929688 20.089844 5.351562 C 21.109375 5.769531 21.769531 6.761719 21.769531 7.859375 C 21.769531 9.359375 20.550781 10.574219 19.046875 10.578125 Z M 19.046875 6.117188 C 18.339844 6.117188 17.703125 6.542969 17.433594 7.195312 C 17.164062 7.84375 17.3125 8.597656 17.8125 9.09375 C 18.3125 9.59375 19.0625 9.742188 19.71875 9.472656 C 20.371094 9.203125 20.796875 8.566406 20.796875 7.859375 C 20.796875 6.898438 20.015625 6.117188 19.046875 6.117188 Z M 19.046875 6.117188 " fill-opacity="1" fill-rule="nonzero"/><path fill="rgb(23.919678%, 38.42926%, 37.249756%)" d="M 23.648438 16.078125 L 14.449219 16.078125 C 14.160156 16.078125 13.933594 15.832031 13.960938 15.546875 C 14.269531 12.3125 15.695312 11.675781 17.675781 11.128906 C 17.820312 11.089844 17.972656 11.117188 18.09375 11.203125 C 18.664062 11.609375 19.429688 11.609375 20 11.203125 C 20.121094 11.117188 20.273438 11.089844 20.417969 11.128906 C 22.394531 11.675781 23.820312 12.3125 24.128906 15.546875 C 24.15625 15.832031 23.933594 16.078125 23.644531 16.078125 Z M 14.996094 15.105469 L 23.097656 15.105469 C 22.777344 12.992188 21.867188 12.550781 20.375 12.125 C 19.554688 12.601562 18.542969 12.601562 17.726562 12.125 C 16.226562 12.550781 15.320312 12.996094 14.996094 15.105469 Z M 14.996094 15.105469 " fill-opacity="1" fill-rule="nonzero"/><path fill="rgb(23.919678%, 38.42926%, 37.249756%)" d="M 24.777344 21.554688 L 13.03125 21.554688 C 12.765625 21.554688 12.546875 21.339844 12.546875 21.070312 L 12.546875 17.457031 C 12.546875 17.191406 12.765625 16.972656 13.03125 16.972656 L 24.777344 16.972656 C 25.046875 16.972656 25.265625 17.191406 25.265625 17.457031 L 25.265625 21.070312 C 25.265625 21.339844 25.046875 21.554688 24.777344 21.554688 Z M 13.519531 20.585938 L 24.292969 20.585938 L 24.292969 17.945312 L 13.519531 17.945312 Z M 13.519531 20.585938 " fill-opacity="1" fill-rule="nonzero"/><path fill="rgb(23.919678%, 38.42926%, 37.249756%)" d="M 22.097656 20.296875 C 21.960938 20.296875 21.851562 20.1875 21.851562 20.054688 L 21.851562 18.472656 C 21.851562 18.148438 22.339844 18.148438 22.339844 18.472656 L 22.339844 20.054688 C 22.339844 20.1875 22.230469 20.296875 22.097656 20.296875 Z M 22.097656 20.296875 " fill-opacity="1" fill-rule="nonzero"/><path fill="rgb(23.919678%, 38.42926%, 37.249756%)" d="M 15.714844 20.296875 C 15.582031 20.296875 15.472656 20.1875 15.472656 20.054688 L 15.472656 18.472656 C 15.472656 18.148438 15.957031 18.148438 15.957031 18.472656 L 15.957031 20.054688 C 15.957031 20.1875 15.847656 20.296875 15.714844 20.296875 Z M 15.714844 20.296875 " fill-opacity="1" fill-rule="nonzero"/><path fill="rgb(23.919678%, 38.42926%, 37.249756%)" d="M 15.042969 19.875 C 14.796875 19.875 14.707031 19.546875 14.921875 19.421875 L 16.296875 18.632812 C 16.574219 18.472656 16.816406 18.890625 16.539062 19.050781 L 15.167969 19.84375 C 15.128906 19.863281 15.085938 19.875 15.042969 19.875 Z M 15.042969 19.875 " fill-opacity="1" fill-rule="nonzero"/><path fill="rgb(23.919678%, 38.42926%, 37.249756%)" d="M 16.386719 19.875 C 16.34375 19.875 16.300781 19.863281 16.261719 19.84375 L 14.890625 19.050781 C 14.773438 18.984375 14.734375 18.835938 14.800781 18.71875 C 14.867188 18.601562 15.019531 18.5625 15.132812 18.632812 L 16.507812 19.421875 C 16.722656 19.546875 16.632812 19.875 16.386719 19.875 Z M 16.386719 19.875 " fill-opacity="1" fill-rule="nonzero"/><path fill="rgb(23.919678%, 38.42926%, 37.249756%)" d="M 18.90625 20.296875 C 18.769531 20.296875 18.664062 20.1875 18.664062 20.054688 L 18.664062 18.472656 C 18.664062 18.148438 19.148438 18.148438 19.148438 18.472656 L 19.148438 20.054688 C 19.148438 20.1875 19.039062 20.296875 18.90625 20.296875 Z M 18.90625 20.296875 " fill-opacity="1" fill-rule="nonzero"/><path fill="rgb(23.919678%, 38.42926%, 37.249756%)" d="M 18.234375 19.875 C 17.988281 19.875 17.898438 19.546875 18.113281 19.421875 L 19.484375 18.632812 C 19.765625 18.472656 20.007812 18.890625 19.730469 19.050781 L 18.355469 19.84375 C 18.320312 19.863281 18.277344 19.875 18.234375 19.875 Z M 18.234375 19.875 " fill-opacity="1" fill-rule="nonzero"/><path fill="rgb(23.919678%, 38.42926%, 37.249756%)" d="M 19.574219 19.875 C 19.53125 19.875 19.492188 19.863281 19.453125 19.84375 L 18.082031 19.050781 C 17.964844 18.984375 17.925781 18.835938 17.992188 18.71875 C 18.058594 18.601562 18.210938 18.5625 18.324219 18.632812 L 19.699219 19.421875 C 19.914062 19.546875 19.824219 19.875 19.574219 19.875 Z M 19.574219 19.875 " fill-opacity="1" fill-rule="nonzero"/><path fill="rgb(23.919678%, 38.42926%, 37.249756%)" d="M 21.425781 19.875 C 21.175781 19.875 21.089844 19.546875 21.304688 19.421875 L 22.675781 18.632812 C 22.957031 18.472656 23.199219 18.890625 22.921875 19.050781 L 21.546875 19.84375 C 21.511719 19.863281 21.46875 19.875 21.425781 19.875 Z M 21.425781 19.875 " fill-opacity="1" fill-rule="nonzero"/><path fill="rgb(23.919678%, 38.42926%, 37.249756%)" d="M 22.765625 19.875 C 22.722656 19.875 22.683594 19.863281 22.644531 19.84375 L 21.273438 19.050781 C 20.992188 18.890625 21.234375 18.472656 21.515625 18.632812 L 22.886719 19.421875 C 23.105469 19.546875 23.015625 19.875 22.765625 19.875 Z M 22.765625 19.875 " fill-opacity="1" fill-rule="nonzero"/></svg>