<svg xmlns="http://www.w3.org/2000/svg" xmlns:xlink="http://www.w3.org/1999/xlink" width="500" zoomAndPan="magnify" viewBox="0 0 375 374.999991" height="500" preserveAspectRatio="xMidYMid meet" version="1.0"><defs><g/><clipPath id="id1"><path d="M 138.289062 111.832031 L 211.789062 111.832031 L 211.789062 148.582031 L 138.289062 148.582031 Z M 138.289062 111.832031 " clip-rule="nonzero"/></clipPath></defs><path fill="rgb(10.978699%, 12.939453%, 12.548828%)" d="M 88.738281 201.40625 L 88.738281 226.90625 L 285.976562 226.90625 L 285.976562 201.40625 L 88.738281 201.40625 M 284.398438 225.3125 L 90.285156 225.3125 L 90.285156 202.96875 L 284.398438 202.96875 L 284.398438 225.3125 " fill-opacity="1" fill-rule="nonzero"/><g clip-path="url(#id1)"><path fill="rgb(85.099792%, 56.079102%, 53.729248%)" d="M 191.695312 148.558594 L 191.6875 148.058594 L 211.773438 147.53125 C 211.78125 147.855469 211.789062 148.175781 211.789062 148.5 Z M 158.382812 148.527344 L 138.289062 148.527344 C 138.289062 148.160156 138.292969 147.792969 138.304688 147.425781 L 158.390625 148.003906 C 158.386719 148.179688 158.382812 148.355469 158.382812 148.527344 Z M 190.726562 142.851562 C 190.671875 142.695312 190.613281 142.542969 190.554688 142.394531 L 209.265625 134.992188 C 209.40625 135.34375 209.535156 135.699219 209.660156 136.054688 Z M 159.367188 142.820312 L 140.460938 135.929688 C 140.589844 135.566406 140.726562 135.207031 140.867188 134.847656 L 159.527344 142.378906 C 159.472656 142.523438 159.417969 142.671875 159.367188 142.820312 Z M 187.867188 137.796875 C 187.777344 137.683594 187.679688 137.570312 187.585938 137.460938 L 202.675781 124.054688 C 202.933594 124.351562 203.183594 124.652344 203.433594 124.957031 Z M 162.21875 137.789062 L 146.746094 124.832031 C 146.984375 124.542969 147.226562 124.257812 147.472656 123.976562 L 162.539062 137.410156 C 162.429688 137.535156 162.324219 137.660156 162.21875 137.789062 Z M 183.585938 134.082031 L 183.101562 133.800781 L 192.847656 116.046875 C 193.152344 116.214844 193.457031 116.394531 193.757812 116.570312 Z M 166.585938 134.023438 L 156.371094 116.542969 C 156.695312 116.347656 157.023438 116.160156 157.355469 115.976562 L 167 133.789062 C 166.859375 133.863281 166.722656 133.945312 166.585938 134.023438 Z M 178.199219 132.003906 C 178.023438 131.96875 177.847656 131.941406 177.675781 131.910156 L 180.886719 111.871094 C 181.242188 111.929688 181.597656 111.992188 181.949219 112.058594 Z M 171.960938 131.988281 L 168.210938 112.042969 C 168.582031 111.972656 168.953125 111.90625 169.328125 111.847656 L 172.429688 131.90625 C 172.269531 131.933594 172.117188 131.957031 171.960938 131.988281 Z M 171.960938 131.988281 " fill-opacity="1" fill-rule="nonzero"/></g><g fill="rgb(10.978699%, 12.939453%, 12.548828%)" fill-opacity="1"><g transform="translate(29.761849, 190.26118)"><g><path d="M 17.566406 -17.945312 L 17.566406 -25.554688 C 17.566406 -25.554688 16.632812 -22.144531 8.746094 -22.144531 L 6.09375 -22.144531 L 6.09375 -32.355469 C 6.09375 -33.367188 6.066406 -34.65625 7.734375 -34.65625 C 7.734375 -34.65625 9.578125 -34.65625 16.125 -34.65625 C 25.378906 -34.65625 26.492188 -31.242188 26.492188 -31.242188 L 26.492188 -36.222656 L 1.035156 -36.246094 C 1.035156 -36.246094 2.957031 -35.917969 2.957031 -32.378906 L 2.957031 -3.867188 C 2.957031 -0.304688 1.035156 0 1.035156 0 L 26.492188 0 L 26.492188 -4.980469 C 26.492188 -4.980469 25.378906 -1.566406 16.125 -1.566406 C 9.578125 -1.566406 7.734375 -1.566406 7.734375 -1.566406 C 6.191406 -1.566406 6.09375 -2.855469 6.09375 -3.867188 L 6.09375 -21.335938 L 8.746094 -21.359375 C 16.632812 -21.359375 17.566406 -17.945312 17.566406 -17.945312 Z M 17.566406 -17.945312 "/></g></g></g><g fill="rgb(10.978699%, 12.939453%, 12.548828%)" fill-opacity="1"><g transform="translate(65.543471, 190.26118)"><g><path d="M 26.492188 0 L 26.492188 -4.980469 C 26.492188 -4.980469 25.378906 -1.566406 16.125 -1.566406 C 9.578125 -1.566406 7.152344 -1.566406 7.152344 -1.566406 C 6.140625 -1.566406 6.09375 -2.855469 6.09375 -3.867188 L 6.09375 -32.355469 C 6.117188 -35.996094 8.039062 -36.246094 8.039062 -36.246094 L 1.035156 -36.246094 C 1.035156 -36.246094 2.957031 -35.917969 2.957031 -32.378906 L 2.957031 -3.867188 C 2.957031 -0.304688 1.035156 0 1.035156 0 Z M 26.492188 0 "/></g></g></g><g fill="rgb(10.978699%, 12.939453%, 12.548828%)" fill-opacity="1"><g transform="translate(101.325092, 190.26118)"><g><path d="M 1.035156 -36.246094 C 1.035156 -36.246094 2.957031 -35.917969 2.957031 -32.378906 L 2.957031 -3.867188 C 2.957031 -0.304688 1.035156 0 1.035156 0 L 8.039062 0 C 8.039062 0 6.117188 -0.253906 6.09375 -3.867188 L 6.09375 -32.355469 C 6.117188 -35.996094 8.039062 -36.246094 8.039062 -36.246094 Z M 1.035156 -36.246094 "/></g></g></g><g fill="rgb(10.978699%, 12.939453%, 12.548828%)" fill-opacity="1"><g transform="translate(118.605189, 190.26118)"><g><path d="M 2.402344 -36.246094 L 2.148438 -31.242188 C 2.148438 -31.242188 3.414062 -34.65625 12.6875 -34.65625 C 19.234375 -34.65625 22.699219 -34.679688 22.699219 -34.679688 C 22.597656 -34.125 22.34375 -33.390625 21.765625 -32.378906 L 5.207031 -3.867188 C 3.132812 -0.304688 1.035156 0 1.035156 0 L 27.449219 0 L 27.679688 -4.980469 C 27.679688 -4.980469 26.441406 -1.566406 17.164062 -1.566406 C 10.617188 -1.566406 7.382812 -1.566406 7.382812 -1.566406 C 7.480469 -2.125 7.761719 -2.855469 8.339844 -3.867188 L 24.871094 -32.355469 C 26.996094 -35.996094 29.070312 -36.246094 29.070312 -36.246094 Z M 2.402344 -36.246094 "/></g></g></g><g fill="rgb(10.978699%, 12.939453%, 12.548828%)" fill-opacity="1"><g transform="translate(156.914341, 190.26118)"><g><path d="M 29.09375 0 L 36.097656 0 C 36.097656 0 34.074219 -0.253906 32.609375 -3.867188 L 19.742188 -36.246094 L 17.417969 -36.246094 L 4.523438 -3.867188 C 3.058594 -0.253906 1.035156 0 1.035156 0 L 6.371094 0 C 6.371094 0 4.550781 -0.304688 5.992188 -3.867188 L 9.933594 -13.75 L 25.53125 -13.75 L 29.472656 -3.867188 C 30.914062 -0.304688 29.09375 0 29.09375 0 Z M 10.3125 -14.6875 C 10.3125 -14.6875 17.617188 -33.011719 17.695312 -33.289062 C 17.820312 -33.011719 25.152344 -14.6875 25.152344 -14.6875 Z M 10.3125 -14.6875 "/></g></g></g><g fill="rgb(10.978699%, 12.939453%, 12.548828%)" fill-opacity="1"><g transform="translate(202.250029, 190.26118)"><g><path d="M 22.015625 -22.671875 C 24.0625 -23.53125 25.402344 -25.554688 25.402344 -28.058594 C 25.402344 -33.972656 19.664062 -36.246094 13.75 -36.246094 C 13.648438 -36.246094 1.035156 -36.246094 1.035156 -36.246094 C 1.035156 -36.246094 2.957031 -35.917969 2.957031 -32.378906 L 2.957031 -3.867188 C 2.957031 -0.304688 1.035156 0 1.035156 0 L 11.5 -0.0234375 C 28.714844 -0.0234375 32.582031 -5.257812 32.582031 -11.527344 C 32.582031 -17.617188 28.234375 -21.511719 22.015625 -22.671875 Z M 6.09375 -32.355469 C 6.09375 -35.285156 7.761719 -35.414062 8.011719 -35.414062 C 8.011719 -35.414062 13.675781 -35.4375 13.75 -35.4375 C 18.402344 -35.4375 22.167969 -32.226562 22.167969 -28.160156 C 22.167969 -26.136719 21.234375 -24.316406 19.714844 -22.976562 C 19.109375 -23.027344 18.503906 -23.054688 17.871094 -23.054688 C 13.976562 -23.054688 9.199219 -21.382812 6.09375 -19.035156 Z M 11.324219 -1.414062 C 6.242188 -1.363281 6.066406 -1.792969 6.09375 -3.867188 L 6.09375 -15.949219 C 8.316406 -19.035156 13.597656 -21.914062 17.871094 -21.914062 C 24.34375 -21.914062 29.121094 -17.316406 29.121094 -11.679688 C 29.121094 -6.117188 24.519531 -1.566406 11.324219 -1.414062 Z M 11.324219 -1.414062 "/></g></g></g><g fill="rgb(10.978699%, 12.939453%, 12.548828%)" fill-opacity="1"><g transform="translate(244.122991, 190.26118)"><g><path d="M 17.566406 -17.945312 L 17.566406 -25.554688 C 17.566406 -25.554688 16.632812 -22.144531 8.746094 -22.144531 L 6.09375 -22.144531 L 6.09375 -32.355469 C 6.09375 -33.367188 6.066406 -34.65625 7.734375 -34.65625 C 7.734375 -34.65625 9.578125 -34.65625 16.125 -34.65625 C 25.378906 -34.65625 26.492188 -31.242188 26.492188 -31.242188 L 26.492188 -36.222656 L 1.035156 -36.246094 C 1.035156 -36.246094 2.957031 -35.917969 2.957031 -32.378906 L 2.957031 -3.867188 C 2.957031 -0.304688 1.035156 0 1.035156 0 L 26.492188 0 L 26.492188 -4.980469 C 26.492188 -4.980469 25.378906 -1.566406 16.125 -1.566406 C 9.578125 -1.566406 7.734375 -1.566406 7.734375 -1.566406 C 6.191406 -1.566406 6.09375 -2.855469 6.09375 -3.867188 L 6.09375 -21.335938 L 8.746094 -21.359375 C 16.632812 -21.359375 17.566406 -17.945312 17.566406 -17.945312 Z M 17.566406 -17.945312 "/></g></g></g><g fill="rgb(10.978699%, 12.939453%, 12.548828%)" fill-opacity="1"><g transform="translate(279.904612, 190.26118)"><g><path d="M 1.035156 -36.222656 L 1.035156 -30.332031 C 1.035156 -30.332031 2.351562 -34.65625 9.832031 -34.65625 L 12.816406 -34.65625 C 13.019531 -34.097656 13.167969 -33.367188 13.167969 -32.378906 L 13.167969 -3.867188 C 13.167969 -0.304688 11.25 0 11.25 0 L 18.25 0 C 18.25 0 16.304688 -0.253906 16.304688 -3.867188 L 16.304688 -32.355469 C 16.304688 -33.367188 16.457031 -34.097656 16.65625 -34.65625 L 19.691406 -34.65625 C 27.199219 -34.65625 28.488281 -30.332031 28.488281 -30.332031 L 28.488281 -36.222656 Z M 1.035156 -36.222656 "/></g></g></g><g fill="rgb(10.978699%, 12.939453%, 12.548828%)" fill-opacity="1"><g transform="translate(317.682974, 190.26118)"><g><path d="M 17.566406 -17.945312 L 17.566406 -25.554688 C 17.566406 -25.554688 16.632812 -22.144531 8.746094 -22.144531 L 6.09375 -22.144531 L 6.09375 -32.355469 C 6.09375 -33.367188 6.066406 -34.65625 7.734375 -34.65625 C 7.734375 -34.65625 9.578125 -34.65625 16.125 -34.65625 C 25.378906 -34.65625 26.492188 -31.242188 26.492188 -31.242188 L 26.492188 -36.222656 L 1.035156 -36.246094 C 1.035156 -36.246094 2.957031 -35.917969 2.957031 -32.378906 L 2.957031 -3.867188 C 2.957031 -0.304688 1.035156 0 1.035156 0 L 26.492188 0 L 26.492188 -4.980469 C 26.492188 -4.980469 25.378906 -1.566406 16.125 -1.566406 C 9.578125 -1.566406 7.734375 -1.566406 7.734375 -1.566406 C 6.191406 -1.566406 6.09375 -2.855469 6.09375 -3.867188 L 6.09375 -21.335938 L 8.746094 -21.359375 C 16.632812 -21.359375 17.566406 -17.945312 17.566406 -17.945312 Z M 17.566406 -17.945312 "/></g></g></g><g fill="rgb(85.099792%, 56.079102%, 53.729248%)" fill-opacity="1"><g transform="translate(118.74743, 218.530049)"><g><path d="M 13.34375 -8.546875 L 10.5 0 L 9.21875 0 L 6.875 -6.828125 L 4.546875 0 L 3.25 0 L 0.390625 -8.546875 L 1.640625 -8.546875 L 3.953125 -1.59375 L 6.359375 -8.546875 L 7.484375 -8.546875 L 9.828125 -1.5625 L 12.1875 -8.546875 Z M 13.34375 -8.546875 "/></g></g></g><g fill="rgb(85.099792%, 56.079102%, 53.729248%)" fill-opacity="1"><g transform="translate(134.535256, 218.530049)"><g><path d="M 7.484375 -1.0625 L 7.484375 0 L 1.28125 0 L 1.28125 -8.546875 L 7.3125 -8.546875 L 7.3125 -7.484375 L 2.5 -7.484375 L 2.5 -4.859375 L 6.78125 -4.859375 L 6.78125 -3.8125 L 2.5 -3.8125 L 2.5 -1.0625 Z M 7.484375 -1.0625 "/></g></g></g><g fill="rgb(85.099792%, 56.079102%, 53.729248%)" fill-opacity="1"><g transform="translate(144.760246, 218.530049)"><g><path d="M 7.03125 -4.4375 C 7.53125 -4.289062 7.921875 -4.035156 8.203125 -3.671875 C 8.484375 -3.316406 8.625 -2.863281 8.625 -2.3125 C 8.625 -1.570312 8.34375 -1 7.78125 -0.59375 C 7.226562 -0.195312 6.421875 0 5.359375 0 L 1.28125 0 L 1.28125 -8.546875 L 5.109375 -8.546875 C 6.085938 -8.546875 6.84375 -8.347656 7.375 -7.953125 C 7.90625 -7.566406 8.171875 -7.023438 8.171875 -6.328125 C 8.171875 -5.878906 8.066406 -5.492188 7.859375 -5.171875 C 7.648438 -4.847656 7.375 -4.601562 7.03125 -4.4375 Z M 2.5 -7.546875 L 2.5 -4.8125 L 5 -4.8125 C 5.625 -4.8125 6.101562 -4.925781 6.4375 -5.15625 C 6.78125 -5.394531 6.953125 -5.738281 6.953125 -6.1875 C 6.953125 -6.632812 6.78125 -6.972656 6.4375 -7.203125 C 6.101562 -7.429688 5.625 -7.546875 5 -7.546875 Z M 5.3125 -0.984375 C 6 -0.984375 6.515625 -1.097656 6.859375 -1.328125 C 7.210938 -1.554688 7.390625 -1.914062 7.390625 -2.40625 C 7.390625 -3.351562 6.695312 -3.828125 5.3125 -3.828125 L 2.5 -3.828125 L 2.5 -0.984375 Z M 5.3125 -0.984375 "/></g></g></g><g fill="rgb(85.099792%, 56.079102%, 53.729248%)" fill-opacity="1"><g transform="translate(156.046561, 218.530049)"><g/></g></g><g fill="rgb(85.099792%, 56.079102%, 53.729248%)" fill-opacity="1"><g transform="translate(161.379661, 218.530049)"><g><path d="M 1.28125 -8.546875 L 4.875 -8.546875 C 5.78125 -8.546875 6.582031 -8.363281 7.28125 -8 C 7.976562 -7.644531 8.519531 -7.144531 8.90625 -6.5 C 9.300781 -5.851562 9.5 -5.109375 9.5 -4.265625 C 9.5 -3.429688 9.300781 -2.691406 8.90625 -2.046875 C 8.519531 -1.398438 7.976562 -0.894531 7.28125 -0.53125 C 6.582031 -0.175781 5.78125 0 4.875 0 L 1.28125 0 Z M 4.8125 -1.0625 C 5.5 -1.0625 6.101562 -1.191406 6.625 -1.453125 C 7.15625 -1.722656 7.5625 -2.097656 7.84375 -2.578125 C 8.132812 -3.066406 8.28125 -3.628906 8.28125 -4.265625 C 8.28125 -4.898438 8.132812 -5.457031 7.84375 -5.9375 C 7.5625 -6.425781 7.15625 -6.804688 6.625 -7.078125 C 6.101562 -7.347656 5.5 -7.484375 4.8125 -7.484375 L 2.5 -7.484375 L 2.5 -1.0625 Z M 4.8125 -1.0625 "/></g></g></g><g fill="rgb(85.099792%, 56.079102%, 53.729248%)" fill-opacity="1"><g transform="translate(173.507726, 218.530049)"><g><path d="M 7.484375 -1.0625 L 7.484375 0 L 1.28125 0 L 1.28125 -8.546875 L 7.3125 -8.546875 L 7.3125 -7.484375 L 2.5 -7.484375 L 2.5 -4.859375 L 6.78125 -4.859375 L 6.78125 -3.8125 L 2.5 -3.8125 L 2.5 -1.0625 Z M 7.484375 -1.0625 "/></g></g></g><g fill="rgb(85.099792%, 56.079102%, 53.729248%)" fill-opacity="1"><g transform="translate(183.732718, 218.530049)"><g><path d="M 8.703125 -8.546875 L 4.953125 0 L 3.75 0 L -0.015625 -8.546875 L 1.3125 -8.546875 L 4.375 -1.53125 L 7.484375 -8.546875 Z M 8.703125 -8.546875 "/></g></g></g><g fill="rgb(85.099792%, 56.079102%, 53.729248%)" fill-opacity="1"><g transform="translate(194.470073, 218.530049)"><g><path d="M 7.484375 -1.0625 L 7.484375 0 L 1.28125 0 L 1.28125 -8.546875 L 7.3125 -8.546875 L 7.3125 -7.484375 L 2.5 -7.484375 L 2.5 -4.859375 L 6.78125 -4.859375 L 6.78125 -3.8125 L 2.5 -3.8125 L 2.5 -1.0625 Z M 7.484375 -1.0625 "/></g></g></g><g fill="rgb(85.099792%, 56.079102%, 53.729248%)" fill-opacity="1"><g transform="translate(204.695065, 218.530049)"><g><path d="M 1.28125 -8.546875 L 2.5 -8.546875 L 2.5 -1.0625 L 7.125 -1.0625 L 7.125 0 L 1.28125 0 Z M 1.28125 -8.546875 "/></g></g></g><g fill="rgb(85.099792%, 56.079102%, 53.729248%)" fill-opacity="1"><g transform="translate(213.992915, 218.530049)"><g><path d="M 5.140625 0.09375 C 4.273438 0.09375 3.492188 -0.09375 2.796875 -0.46875 C 2.109375 -0.84375 1.566406 -1.363281 1.171875 -2.03125 C 0.773438 -2.695312 0.578125 -3.441406 0.578125 -4.265625 C 0.578125 -5.085938 0.773438 -5.832031 1.171875 -6.5 C 1.566406 -7.164062 2.109375 -7.6875 2.796875 -8.0625 C 3.492188 -8.445312 4.273438 -8.640625 5.140625 -8.640625 C 5.992188 -8.640625 6.765625 -8.445312 7.453125 -8.0625 C 8.148438 -7.6875 8.691406 -7.164062 9.078125 -6.5 C 9.472656 -5.84375 9.671875 -5.097656 9.671875 -4.265625 C 9.671875 -3.441406 9.472656 -2.695312 9.078125 -2.03125 C 8.691406 -1.363281 8.148438 -0.84375 7.453125 -0.46875 C 6.765625 -0.09375 5.992188 0.09375 5.140625 0.09375 Z M 5.140625 -0.984375 C 5.765625 -0.984375 6.328125 -1.125 6.828125 -1.40625 C 7.328125 -1.695312 7.71875 -2.09375 8 -2.59375 C 8.289062 -3.09375 8.4375 -3.648438 8.4375 -4.265625 C 8.4375 -4.890625 8.289062 -5.453125 8 -5.953125 C 7.71875 -6.453125 7.328125 -6.84375 6.828125 -7.125 C 6.328125 -7.40625 5.765625 -7.546875 5.140625 -7.546875 C 4.515625 -7.546875 3.945312 -7.40625 3.4375 -7.125 C 2.925781 -6.84375 2.523438 -6.453125 2.234375 -5.953125 C 1.953125 -5.453125 1.8125 -4.890625 1.8125 -4.265625 C 1.8125 -3.648438 1.953125 -3.09375 2.234375 -2.59375 C 2.523438 -2.09375 2.925781 -1.695312 3.4375 -1.40625 C 3.945312 -1.125 4.515625 -0.984375 5.140625 -0.984375 Z M 5.140625 -0.984375 "/></g></g></g><g fill="rgb(85.099792%, 56.079102%, 53.729248%)" fill-opacity="1"><g transform="translate(226.291765, 218.530049)"><g><path d="M 4.609375 -8.546875 C 5.710938 -8.546875 6.582031 -8.28125 7.21875 -7.75 C 7.851562 -7.21875 8.171875 -6.488281 8.171875 -5.5625 C 8.171875 -4.632812 7.851562 -3.90625 7.21875 -3.375 C 6.582031 -2.851562 5.710938 -2.59375 4.609375 -2.59375 L 2.5 -2.59375 L 2.5 0 L 1.28125 0 L 1.28125 -8.546875 Z M 4.578125 -3.65625 C 5.347656 -3.65625 5.9375 -3.816406 6.34375 -4.140625 C 6.75 -4.472656 6.953125 -4.945312 6.953125 -5.5625 C 6.953125 -6.175781 6.75 -6.648438 6.34375 -6.984375 C 5.9375 -7.316406 5.347656 -7.484375 4.578125 -7.484375 L 2.5 -7.484375 L 2.5 -3.65625 Z M 4.578125 -3.65625 "/></g></g></g><g fill="rgb(85.099792%, 56.079102%, 53.729248%)" fill-opacity="1"><g transform="translate(237.151109, 218.530049)"><g><path d="M 7.484375 -1.0625 L 7.484375 0 L 1.28125 0 L 1.28125 -8.546875 L 7.3125 -8.546875 L 7.3125 -7.484375 L 2.5 -7.484375 L 2.5 -4.859375 L 6.78125 -4.859375 L 6.78125 -3.8125 L 2.5 -3.8125 L 2.5 -1.0625 Z M 7.484375 -1.0625 "/></g></g></g><g fill="rgb(85.099792%, 56.079102%, 53.729248%)" fill-opacity="1"><g transform="translate(247.376095, 218.530049)"><g><path d="M 7 0 L 5.15625 -2.625 C 4.925781 -2.601562 4.742188 -2.59375 4.609375 -2.59375 L 2.5 -2.59375 L 2.5 0 L 1.28125 0 L 1.28125 -8.546875 L 4.609375 -8.546875 C 5.710938 -8.546875 6.582031 -8.28125 7.21875 -7.75 C 7.851562 -7.21875 8.171875 -6.488281 8.171875 -5.5625 C 8.171875 -4.90625 8.007812 -4.34375 7.6875 -3.875 C 7.363281 -3.414062 6.898438 -3.082031 6.296875 -2.875 L 8.328125 0 Z M 4.578125 -3.640625 C 5.347656 -3.640625 5.9375 -3.804688 6.34375 -4.140625 C 6.75 -4.472656 6.953125 -4.945312 6.953125 -5.5625 C 6.953125 -6.175781 6.75 -6.648438 6.34375 -6.984375 C 5.9375 -7.316406 5.347656 -7.484375 4.578125 -7.484375 L 2.5 -7.484375 L 2.5 -3.640625 Z M 4.578125 -3.640625 "/></g></g></g></svg>