<svg xmlns="http://www.w3.org/2000/svg" xmlns:xlink="http://www.w3.org/1999/xlink" width="500" zoomAndPan="magnify" viewBox="0 0 375 374.999991" height="500" preserveAspectRatio="xMidYMid meet" version="1.0"><defs><g/><clipPath id="id1"><path d="M 59.8125 67.515625 L 285.5625 67.515625 L 285.5625 293.265625 L 59.8125 293.265625 Z M 59.8125 67.515625 " clip-rule="nonzero"/></clipPath><clipPath id="id2"><path d="M 181 37 L 374 37 L 374 306 L 181 306 Z M 181 37 " clip-rule="nonzero"/></clipPath><clipPath id="id3"><path d="M 181.308594 64.832031 L 328.789062 37.445312 L 373.429688 277.835938 L 225.949219 305.222656 Z M 181.308594 64.832031 " clip-rule="nonzero"/></clipPath></defs><g clip-path="url(#id1)"><path fill="rgb(85.099792%, 56.079102%, 53.729248%)" d="M 172.648438 293.265625 C 110.460938 293.265625 59.8125 242.613281 59.8125 180.351562 C 59.8125 118.089844 110.460938 67.515625 172.648438 67.515625 C 234.835938 67.515625 285.484375 118.164062 285.484375 180.351562 C 285.5625 242.613281 234.910156 293.265625 172.648438 293.265625 Z M 172.648438 69.425781 C 111.457031 69.425781 61.722656 119.15625 61.722656 180.351562 C 61.722656 241.542969 111.53125 291.355469 172.648438 291.355469 C 233.765625 291.355469 283.652344 241.542969 283.652344 180.351562 C 283.652344 119.15625 233.84375 69.425781 172.648438 69.425781 Z M 172.648438 69.425781 " fill-opacity="1" fill-rule="nonzero"/></g><g clip-path="url(#id2)"><g clip-path="url(#id3)"><path fill="rgb(98.039246%, 97.648621%, 96.859741%)" d="M 181.308594 64.832031 L 328.789062 37.445312 L 373.429688 277.835938 L 225.949219 305.222656 Z M 181.308594 64.832031 " fill-opacity="1" fill-rule="nonzero"/></g></g><g fill="rgb(0%, 0%, 0%)" fill-opacity="1"><g transform="translate(215.507387, 76.962574)"><g><path d="M 3.339844 1.828125 L 5.988281 3.277344 L 13.378906 -4.636719 L 13.410156 -4.617188 L 10.675781 5.84375 L 13.339844 7.304688 L 22.640625 -2.050781 L 20.632812 -3.148438 L 13.035156 4.734375 L 13.003906 4.71875 L 15.757812 -5.816406 L 13.09375 -7.277344 L 5.714844 0.726562 L 5.683594 0.707031 L 8.203125 -9.957031 L 6.210938 -11.046875 Z M 3.339844 1.828125 "/></g></g></g><g fill="rgb(0%, 0%, 0%)" fill-opacity="1"><g transform="translate(236.933025, 89.722479)"><g><path d="M 0.808594 0.648438 L 7.785156 6.261719 L 8.949219 4.8125 L 3.644531 0.546875 L 6.03125 -2.421875 L 10.640625 1.289062 L 11.703125 -0.0351562 L 7.09375 -3.742188 L 9.257812 -6.429688 L 14.421875 -2.273438 L 15.589844 -3.722656 L 8.75 -9.222656 Z M 0.808594 0.648438 "/></g></g></g><g fill="rgb(0%, 0%, 0%)" fill-opacity="1"><g transform="translate(249.528877, 100.348438)"><g><path d="M 0.703125 0.761719 L 4.894531 5.308594 C 6.808594 7.382812 8.847656 7.691406 10.488281 6.179688 C 11.671875 5.085938 11.878906 3.730469 11.046875 2.378906 L 11.058594 2.367188 C 12.207031 3.109375 13.4375 2.996094 14.449219 2.0625 C 16.066406 0.570312 15.953125 -1.394531 14.160156 -3.335938 L 10.015625 -7.828125 Z M 7.566406 -2.554688 L 10.21875 -5 L 12.644531 -2.375 C 13.625 -1.308594 13.683594 -0.246094 12.855469 0.519531 C 12.015625 1.292969 10.96875 1.136719 9.988281 0.0742188 Z M 3.507812 1.191406 L 6.382812 -1.460938 L 8.832031 1.191406 C 9.933594 2.386719 10.039062 3.578125 9.132812 4.414062 C 8.210938 5.265625 7.058594 5.039062 5.953125 3.84375 Z M 3.507812 1.191406 "/></g></g></g><g fill="rgb(0%, 0%, 0%)" fill-opacity="1"><g transform="translate(267.565, 122.911349)"><g><path d="M 0.492188 0.914062 L 2.800781 5.210938 C 4.859375 9.035156 7.992188 10.070312 11.566406 8.148438 C 15.152344 6.21875 16.019531 3.035156 13.960938 -0.789062 L 11.652344 -5.085938 Z M 3.160156 1.953125 L 11.046875 -2.285156 L 12.324219 0.0898438 C 13.695312 2.640625 13.058594 4.808594 10.507812 6.179688 C 7.972656 7.542969 5.808594 6.878906 4.4375 4.332031 Z M 3.160156 1.953125 "/></g></g></g><g fill="rgb(0%, 0%, 0%)" fill-opacity="1"><g transform="translate(276.194993, 140.166568)"><g><path d="M 0.347656 0.976562 L 3.335938 9.417969 L 5.089844 8.796875 L 2.816406 2.378906 L 6.402344 1.105469 L 8.378906 6.683594 L 9.980469 6.117188 L 8.003906 0.539062 L 11.253906 -0.613281 L 13.46875 5.636719 L 15.222656 5.015625 L 12.289062 -3.253906 Z M 0.347656 0.976562 "/></g></g></g><g fill="rgb(0%, 0%, 0%)" fill-opacity="1"><g transform="translate(281.338077, 155.819157)"><g><path d="M 0.929688 4.789062 L 1.417969 7.316406 L 14.761719 9.574219 L 14.316406 7.273438 L 3.269531 5.683594 L 3.261719 5.648438 L 12.910156 0.0117188 L 12.46875 -2.269531 Z M 0.929688 4.789062 "/></g></g></g><g fill="rgb(0%, 0%, 0%)" fill-opacity="1"><g transform="translate(284.326108, 173.991272)"><g><path d="M 0.0429688 1.035156 L 0.421875 9.980469 L 2.28125 9.902344 L 1.992188 3.101562 L 5.796875 2.9375 L 6.046875 8.847656 L 7.742188 8.777344 L 7.492188 2.867188 L 10.9375 2.71875 L 11.21875 9.34375 L 13.074219 9.265625 L 12.703125 0.5 Z M 0.0429688 1.035156 "/></g></g></g><g fill="rgb(0%, 0%, 0%)" fill-opacity="1"><g transform="translate(284.573018, 190.509455)"><g><path d="M -0.0976562 1.03125 L -0.863281 9.109375 L 1.058594 9.292969 L 1.613281 3.421875 L 12.308594 4.433594 L 12.515625 2.226562 Z M -0.0976562 1.03125 "/></g></g></g><g fill="rgb(0%, 0%, 0%)" fill-opacity="1"><g transform="translate(282.865649, 205.854201)"><g><path d="M -2.285156 7.144531 C -3.324219 11.195312 -1.402344 14.511719 2.5625 15.523438 C 6.527344 16.535156 9.820312 14.554688 10.855469 10.503906 C 11.890625 6.453125 9.949219 3.152344 5.984375 2.136719 C 2.019531 1.125 -1.25 3.09375 -2.285156 7.144531 Z M -0.417969 7.621094 C 0.28125 4.886719 2.613281 3.5625 5.433594 4.285156 C 8.257812 5.007812 9.667969 7.285156 8.96875 10.019531 C 8.269531 12.757812 5.9375 14.078125 3.117188 13.359375 C 0.292969 12.636719 -1.117188 10.359375 -0.417969 7.621094 Z M -0.417969 7.621094 "/></g></g></g><g fill="rgb(0%, 0%, 0%)" fill-opacity="1"><g transform="translate(277.057933, 226.027058)"><g><path d="M -0.417969 0.949219 L -1.304688 2.960938 L 2.945312 4.835938 L 1.597656 7.894531 C 0.457031 10.476562 1.164062 12.898438 3.339844 13.859375 C 5.515625 14.816406 7.792969 13.730469 8.929688 11.148438 L 11.175781 6.0625 Z M 4.566406 5.550781 L 8.667969 7.359375 L 7.40625 10.222656 C 6.742188 11.726562 5.445312 12.363281 4.234375 11.832031 C 3.023438 11.296875 2.644531 9.898438 3.300781 8.410156 Z M 4.566406 5.550781 "/></g></g></g><g fill="rgb(0%, 0%, 0%)" fill-opacity="1"><g transform="translate(269.438442, 242.077872)"><g><path d="M -0.550781 0.878906 L -5.324219 8.453125 L -3.75 9.445312 L -0.121094 3.683594 L 3.101562 5.710938 L -0.0507812 10.71875 L 1.386719 11.621094 L 4.535156 6.613281 L 7.457031 8.453125 L 3.921875 14.0625 L 5.496094 15.054688 L 10.171875 7.628906 Z M -0.550781 0.878906 "/></g></g></g><g fill="rgb(0%, 0%, 0%)" fill-opacity="1"><g transform="translate(260.35225, 255.815908)"><g><path d="M -7.007812 7.59375 C -7.628906 8.3125 -7.839844 9.242188 -7.699219 10.117188 L -6.378906 10.335938 C -6.515625 9.867188 -6.472656 9.40625 -6.238281 9.136719 C -5.980469 8.839844 -5.585938 8.847656 -5.207031 9.035156 L -3.433594 9.882812 C -2.738281 10.199219 -2.050781 10.273438 -1.375 9.957031 L -1.363281 9.96875 C -2.410156 11.734375 -2.207031 13.515625 -0.894531 14.648438 C 0.8125 16.121094 3.1875 15.695312 5.007812 13.585938 L 8.910156 9.066406 L -0.675781 0.785156 L -2.125 2.460938 L 1.714844 5.78125 L 0.0078125 7.753906 C -0.515625 8.363281 -1.375 8.425781 -2.171875 8.066406 L -4.324219 7.082031 C -5.292969 6.648438 -6.273438 6.742188 -7.007812 7.59375 Z M 3 6.890625 L 6.125 9.589844 L 3.800781 12.28125 C 2.769531 13.46875 1.433594 13.707031 0.511719 12.914062 C -0.421875 12.105469 -0.351562 10.769531 0.675781 9.582031 Z M 3 6.890625 "/></g></g></g><g fill="rgb(85.099792%, 56.079102%, 53.729248%)" fill-opacity="1"><g transform="translate(93.152643, 230.664388)"><g><path d="M 37.253906 -47.328125 L 37.253906 -63.285156 C 37.253906 -63.285156 34.550781 -56.457031 21.027344 -56.457031 L 12.777344 -56.457031 L 12.777344 -88.03125 C 12.777344 -90.9375 13.117188 -92.96875 13.589844 -94.25 L 30.15625 -94.25 C 61.796875 -94.25 65.515625 -84.042969 65.515625 -84.042969 L 62.746094 -96.957031 L 1.691406 -96.957031 C 1.691406 -96.957031 4.53125 -96.007812 4.53125 -87.964844 L 4.53125 -9.464844 C 4.53125 -1.417969 1.691406 -0.0664062 1.691406 -0.0664062 L 62.746094 -0.0664062 L 65.515625 -12.914062 C 65.515625 -12.914062 61.796875 -2.703125 30.15625 -2.703125 L 13.726562 -2.703125 C 13.183594 -4.125 12.777344 -6.289062 12.777344 -9.464844 L 12.777344 -54.15625 L 21.027344 -54.15625 C 34.550781 -54.15625 37.253906 -47.328125 37.253906 -47.328125 Z M 37.253906 -47.328125 "/></g></g></g><g fill="rgb(85.099792%, 56.079102%, 53.729248%)" fill-opacity="1"><g transform="translate(177.932243, 230.664388)"><g><path d="M 41.785156 -96.890625 C 39.824219 -96.890625 1.691406 -96.890625 1.691406 -96.890625 C 1.691406 -96.890625 4.53125 -95.535156 4.53125 -87.492188 L 4.53125 -9.058594 C 4.53125 -1.015625 1.691406 -0.0664062 1.691406 -0.0664062 L 15.550781 -0.0664062 C 15.550781 -0.0664062 12.777344 -0.945312 12.777344 -8.992188 L 12.777344 -37.59375 L 36.917969 -37.59375 C 64.164062 -37.59375 74.710938 -48.476562 74.710938 -68.152344 C 74.710938 -85.800781 59.5 -96.890625 41.785156 -96.890625 Z M 32.792969 -40.027344 L 12.777344 -40.027344 L 12.777344 -87.492188 C 12.777344 -90.464844 13.117188 -92.5625 13.589844 -93.914062 L 36.917969 -93.914062 C 50.777344 -93.914062 66.125 -86.746094 66.125 -67.949219 C 66.125 -44.554688 51.589844 -40.027344 32.792969 -40.027344 Z M 32.792969 -40.027344 "/></g></g></g></svg>